<svg xmlns="http://www.w3.org/2000/svg" width="805" height="600"><rect width="805" height="600" x="0" y="0" fill="#FFFFFF" id="background"/><g id="viz"><g transform="translate(0,0)"><g transform="translate(50,20)"><g class="bars"><rect id="Modern orchestra - Number" x="4.938381228951783" y="185.25" height="74.75" width="61.78629670515555" fill="#1f77b4"/><rect id="Modern orchestra - Number" x="140.35685164742222" y="214.5" height="45.5" width="61.78629670515555" fill="#1f77b4"/><rect id="Modern orchestra - Number" x="275.7753220658926" y="208" height="52" width="61.78629670515555" fill="#1f77b4"/><rect id="Modern orchestra - Number" x="72.647616438187" y="250.25" height="9.75" width="61.78629670515555" fill="#1f77b4"/><rect id="Modern orchestra - Number" x="208.06608685665745" y="25.999999999999993" height="234" width="61.78629670515555" fill="#1f77b4"/></g><g id="xAxis" transform="translate(0,260)" fill="none" font-size="10" font-family="sans-serif" text-anchor="middle"><path class="domain" stroke="currentColor" d="M0,0H342.5"/><g class="tick" opacity="1" transform="translate(35.83152958152956,0)"><line stroke="currentColor" y2="6"/><text fill="currentColor" y="9" dy="0.71em">Brass</text></g><g class="tick" opacity="1" transform="translate(103.54076479076477,0)"><line stroke="currentColor" y2="6"/><text fill="currentColor" y="9" dy="0.71em">Keyboards</text></g><g class="tick" opacity="1" transform="translate(171.25,0)"><line stroke="currentColor" y2="6"/><text fill="currentColor" y="9" dy="0.71em">Percussion</text></g><g class="tick" opacity="1" transform="translate(238.95923520923523,0)"><line stroke="currentColor" y2="6"/><text fill="currentColor" y="9" dy="0.71em">Strings</text></g><g class="tick" opacity="1" transform="translate(306.6684704184704,0)"><line stroke="currentColor" y2="6"/><text fill="currentColor" y="9" dy="0.71em">Woodwinds</text></g></g><g id="yAxis" fill="none" font-size="10" font-family="sans-serif" text-anchor="end"><path class="domain" stroke="currentColor" d="M0,260V0"/><g class="tick" opacity="1" transform="translate(0,260)"><line stroke="currentColor" x2="-6"/><text fill="currentColor" x="-9" dy="0.32em">0</text></g><g class="tick" opacity="1" transform="translate(0,227.5)"><line stroke="currentColor" x2="-6"/><text fill="currentColor" x="-9" dy="0.32em">10</text></g><g class="tick" opacity="1" transform="translate(0,195)"><line stroke="currentColor" x2="-6"/><text fill="currentColor" x="-9" dy="0.32em">20</text></g><g class="tick" opacity="1" transform="translate(0,162.5)"><line stroke="currentColor" x2="-6"/><text fill="currentColor" x="-9" dy="0.32em">30</text></g><g class="tick" opacity="1" transform="translate(0,130)"><line stroke="currentColor" x2="-6"/><text fill="currentColor" x="-9" dy="0.32em">40</text></g><g class="tick" opacity="1" transform="translate(0,97.5)"><line stroke="currentColor" x2="-6"/><text fill="currentColor" x="-9" dy="0.32em">50</text></g><g class="tick" opacity="1" transform="translate(0,65)"><line stroke="currentColor" x2="-6"/><text fill="currentColor" x="-9" dy="0.32em">60</text></g><g class="tick" opacity="1" transform="translate(0,32.5)"><line stroke="currentColor" x2="-6"/><text fill="currentColor" x="-9" dy="0.32em">70</text></g><g class="tick" opacity="1" transform="translate(0,0)"><line stroke="currentColor" x2="-6"/><text fill="currentColor" x="-9" dy="0.32em">80</text></g></g><text y="256" x="342.5" text-anchor="end" style="font-family: Arial, sans-serif; font-size: 12px; fill: rgb(123, 123, 123); font-weight: bold;">Sets</text><text y="0" x="4" dominant-baseline="hanging" text-anchor="start" style="font-family: Arial, sans-serif; font-size: 12px; fill: rgb(123, 123, 123); font-weight: bold;">Value</text></g><text x="4" y="4" style="font-family: Arial, sans-serif; font-size: 12px; fill: black; font-weight: bold; dominant-baseline: hanging;">Modern orchestra</text></g><g transform="translate(402.5,0)"><g transform="translate(50,20)"><g class="bars"><rect id="Late Romantic orchestra - Number" x="275.7753220658926" y="208" height="52" width="61.78629670515555" fill="#1f77b4"/><rect id="Late Romantic orchestra - Number" x="140.35685164742222" y="217.75" height="42.25" width="61.78629670515555" fill="#1f77b4"/><rect id="Late Romantic orchestra - Number" x="72.647616438187" y="253.5" height="6.5" width="61.78629670515555" fill="#1f77b4"/><rect id="Late Romantic orchestra - Number" x="208.06608685665745" y="58.49999999999999" height="201.5" width="61.78629670515555" fill="#1f77b4"/><rect id="Late Romantic orchestra - Number" x="4.938381228951783" y="198.25" height="61.75" width="61.78629670515555" fill="#1f77b4"/></g><g id="xAxis" transform="translate(0,260)" fill="none" font-size="10" font-family="sans-serif" text-anchor="middle"><path class="domain" stroke="currentColor" d="M0,0H342.5"/><g class="tick" opacity="1" transform="translate(35.83152958152956,0)"><line stroke="currentColor" y2="6"/><text fill="currentColor" y="9" dy="0.71em">Brass</text></g><g class="tick" opacity="1" transform="translate(103.54076479076477,0)"><line stroke="currentColor" y2="6"/><text fill="currentColor" y="9" dy="0.71em">Keyboards</text></g><g class="tick" opacity="1" transform="translate(171.25,0)"><line stroke="currentColor" y2="6"/><text fill="currentColor" y="9" dy="0.71em">Percussion</text></g><g class="tick" opacity="1" transform="translate(238.95923520923523,0)"><line stroke="currentColor" y2="6"/><text fill="currentColor" y="9" dy="0.71em">Strings</text></g><g class="tick" opacity="1" transform="translate(306.6684704184704,0)"><line stroke="currentColor" y2="6"/><text fill="currentColor" y="9" dy="0.71em">Woodwinds</text></g></g><g id="yAxis" fill="none" font-size="10" font-family="sans-serif" text-anchor="end"><path class="domain" stroke="currentColor" d="M0,260V0"/><g class="tick" opacity="1" transform="translate(0,260)"><line stroke="currentColor" x2="-6"/><text fill="currentColor" x="-9" dy="0.32em">0</text></g><g class="tick" opacity="1" transform="translate(0,227.5)"><line stroke="currentColor" x2="-6"/><text fill="currentColor" x="-9" dy="0.32em">10</text></g><g class="tick" opacity="1" transform="translate(0,195)"><line stroke="currentColor" x2="-6"/><text fill="currentColor" x="-9" dy="0.32em">20</text></g><g class="tick" opacity="1" transform="translate(0,162.5)"><line stroke="currentColor" x2="-6"/><text fill="currentColor" x="-9" dy="0.32em">30</text></g><g class="tick" opacity="1" transform="translate(0,130)"><line stroke="currentColor" x2="-6"/><text fill="currentColor" x="-9" dy="0.32em">40</text></g><g class="tick" opacity="1" transform="translate(0,97.5)"><line stroke="currentColor" x2="-6"/><text fill="currentColor" x="-9" dy="0.32em">50</text></g><g class="tick" opacity="1" transform="translate(0,65)"><line stroke="currentColor" x2="-6"/><text fill="currentColor" x="-9" dy="0.32em">60</text></g><g class="tick" opacity="1" transform="translate(0,32.5)"><line stroke="currentColor" x2="-6"/><text fill="currentColor" x="-9" dy="0.32em">70</text></g><g class="tick" opacity="1" transform="translate(0,0)"><line stroke="currentColor" x2="-6"/><text fill="currentColor" x="-9" dy="0.32em">80</text></g></g><text y="256" x="342.5" text-anchor="end" display="none" style="font-family: Arial, sans-serif; font-size: 12px; fill: rgb(123, 123, 123); font-weight: bold;">Sets</text><text y="0" x="4" dominant-baseline="hanging" text-anchor="start" display="none" style="font-family: Arial, sans-serif; font-size: 12px; fill: rgb(123, 123, 123); font-weight: bold;">Value</text></g><text x="4" y="4" style="font-family: Arial, sans-serif; font-size: 12px; fill: black; font-weight: bold; dominant-baseline: hanging;">Late Romantic orchestra</text></g><g transform="translate(0,300)"><g transform="translate(50,20)"><g class="bars"><rect id="Early Romantic orchestra - Number" x="275.7753220658926" y="221" height="39" width="61.78629670515555" fill="#1f77b4"/><rect id="Early Romantic orchestra - Number" x="140.35685164742222" y="230.75" height="29.25" width="61.78629670515555" fill="#1f77b4"/><rect id="Early Romantic orchestra - Number" x="208.06608685665745" y="94.25000000000001" height="165.75" width="61.78629670515555" fill="#1f77b4"/><rect id="Early Romantic orchestra - Number" x="4.938381228951783" y="221" height="39" width="61.78629670515555" fill="#1f77b4"/></g><g id="xAxis" transform="translate(0,260)" fill="none" font-size="10" font-family="sans-serif" text-anchor="middle"><path class="domain" stroke="currentColor" d="M0,0H342.5"/><g class="tick" opacity="1" transform="translate(35.83152958152956,0)"><line stroke="currentColor" y2="6"/><text fill="currentColor" y="9" dy="0.71em">Brass</text></g><g class="tick" opacity="1" transform="translate(103.54076479076477,0)"><line stroke="currentColor" y2="6"/><text fill="currentColor" y="9" dy="0.71em">Keyboards</text></g><g class="tick" opacity="1" transform="translate(171.25,0)"><line stroke="currentColor" y2="6"/><text fill="currentColor" y="9" dy="0.71em">Percussion</text></g><g class="tick" opacity="1" transform="translate(238.95923520923523,0)"><line stroke="currentColor" y2="6"/><text fill="currentColor" y="9" dy="0.71em">Strings</text></g><g class="tick" opacity="1" transform="translate(306.6684704184704,0)"><line stroke="currentColor" y2="6"/><text fill="currentColor" y="9" dy="0.71em">Woodwinds</text></g></g><g id="yAxis" fill="none" font-size="10" font-family="sans-serif" text-anchor="end"><path class="domain" stroke="currentColor" d="M0,260V0"/><g class="tick" opacity="1" transform="translate(0,260)"><line stroke="currentColor" x2="-6"/><text fill="currentColor" x="-9" dy="0.32em">0</text></g><g class="tick" opacity="1" transform="translate(0,227.5)"><line stroke="currentColor" x2="-6"/><text fill="currentColor" x="-9" dy="0.32em">10</text></g><g class="tick" opacity="1" transform="translate(0,195)"><line stroke="currentColor" x2="-6"/><text fill="currentColor" x="-9" dy="0.32em">20</text></g><g class="tick" opacity="1" transform="translate(0,162.5)"><line stroke="currentColor" x2="-6"/><text fill="currentColor" x="-9" dy="0.32em">30</text></g><g class="tick" opacity="1" transform="translate(0,130)"><line stroke="currentColor" x2="-6"/><text fill="currentColor" x="-9" dy="0.32em">40</text></g><g class="tick" opacity="1" transform="translate(0,97.5)"><line stroke="currentColor" x2="-6"/><text fill="currentColor" x="-9" dy="0.32em">50</text></g><g class="tick" opacity="1" transform="translate(0,65)"><line stroke="currentColor" x2="-6"/><text fill="currentColor" x="-9" dy="0.32em">60</text></g><g class="tick" opacity="1" transform="translate(0,32.5)"><line stroke="currentColor" x2="-6"/><text fill="currentColor" x="-9" dy="0.32em">70</text></g><g class="tick" opacity="1" transform="translate(0,0)"><line stroke="currentColor" x2="-6"/><text fill="currentColor" x="-9" dy="0.32em">80</text></g></g><text y="256" x="342.5" text-anchor="end" display="none" style="font-family: Arial, sans-serif; font-size: 12px; fill: rgb(123, 123, 123); font-weight: bold;">Sets</text><text y="0" x="4" dominant-baseline="hanging" text-anchor="start" display="none" style="font-family: Arial, sans-serif; font-size: 12px; fill: rgb(123, 123, 123); font-weight: bold;">Value</text></g><text x="4" y="4" style="font-family: Arial, sans-serif; font-size: 12px; fill: black; font-weight: bold; dominant-baseline: hanging;">Early Romantic orchestra</text></g><g transform="translate(402.5,300)"><g transform="translate(50,20)"><g class="bars"><rect id="Classical orchestra - Number" x="275.7753220658926" y="234" height="26" width="61.78629670515555" fill="#1f77b4"/><rect id="Classical orchestra - Number" x="208.06608685665745" y="198.25" height="61.75" width="61.78629670515555" fill="#1f77b4"/><rect id="Classical orchestra - Number" x="4.938381228951783" y="240.5" height="19.5" width="61.78629670515555" fill="#1f77b4"/><rect id="Classical orchestra - Number" x="140.35685164742222" y="253.5" height="6.5" width="61.78629670515555" fill="#1f77b4"/></g><g id="xAxis" transform="translate(0,260)" fill="none" font-size="10" font-family="sans-serif" text-anchor="middle"><path class="domain" stroke="currentColor" d="M0,0H342.5"/><g class="tick" opacity="1" transform="translate(35.83152958152956,0)"><line stroke="currentColor" y2="6"/><text fill="currentColor" y="9" dy="0.71em">Brass</text></g><g class="tick" opacity="1" transform="translate(103.54076479076477,0)"><line stroke="currentColor" y2="6"/><text fill="currentColor" y="9" dy="0.71em">Keyboards</text></g><g class="tick" opacity="1" transform="translate(171.25,0)"><line stroke="currentColor" y2="6"/><text fill="currentColor" y="9" dy="0.71em">Percussion</text></g><g class="tick" opacity="1" transform="translate(238.95923520923523,0)"><line stroke="currentColor" y2="6"/><text fill="currentColor" y="9" dy="0.71em">Strings</text></g><g class="tick" opacity="1" transform="translate(306.6684704184704,0)"><line stroke="currentColor" y2="6"/><text fill="currentColor" y="9" dy="0.71em">Woodwinds</text></g></g><g id="yAxis" fill="none" font-size="10" font-family="sans-serif" text-anchor="end"><path class="domain" stroke="currentColor" d="M0,260V0"/><g class="tick" opacity="1" transform="translate(0,260)"><line stroke="currentColor" x2="-6"/><text fill="currentColor" x="-9" dy="0.32em">0</text></g><g class="tick" opacity="1" transform="translate(0,227.5)"><line stroke="currentColor" x2="-6"/><text fill="currentColor" x="-9" dy="0.32em">10</text></g><g class="tick" opacity="1" transform="translate(0,195)"><line stroke="currentColor" x2="-6"/><text fill="currentColor" x="-9" dy="0.32em">20</text></g><g class="tick" opacity="1" transform="translate(0,162.5)"><line stroke="currentColor" x2="-6"/><text fill="currentColor" x="-9" dy="0.32em">30</text></g><g class="tick" opacity="1" transform="translate(0,130)"><line stroke="currentColor" x2="-6"/><text fill="currentColor" x="-9" dy="0.32em">40</text></g><g class="tick" opacity="1" transform="translate(0,97.5)"><line stroke="currentColor" x2="-6"/><text fill="currentColor" x="-9" dy="0.32em">50</text></g><g class="tick" opacity="1" transform="translate(0,65)"><line stroke="currentColor" x2="-6"/><text fill="currentColor" x="-9" dy="0.32em">60</text></g><g class="tick" opacity="1" transform="translate(0,32.5)"><line stroke="currentColor" x2="-6"/><text fill="currentColor" x="-9" dy="0.32em">70</text></g><g class="tick" opacity="1" transform="translate(0,0)"><line stroke="currentColor" x2="-6"/><text fill="currentColor" x="-9" dy="0.32em">80</text></g></g><text y="256" x="342.5" text-anchor="end" display="none" style="font-family: Arial, sans-serif; font-size: 12px; fill: rgb(123, 123, 123); font-weight: bold;">Sets</text><text y="0" x="4" dominant-baseline="hanging" text-anchor="start" display="none" style="font-family: Arial, sans-serif; font-size: 12px; fill: rgb(123, 123, 123); font-weight: bold;">Value</text></g><text x="4" y="4" style="font-family: Arial, sans-serif; font-size: 12px; fill: black; font-weight: bold; dominant-baseline: hanging;">Classical orchestra</text></g><g id="grid"><rect x="0" y="0" width="402.5" height="300" fill="none" stroke="#ccc"/><rect x="402.5" y="0" width="402.5" height="300" fill="none" stroke="#ccc"/><rect x="0" y="300" width="402.5" height="300" fill="none" stroke="#ccc"/><rect x="402.5" y="300" width="402.5" height="300" fill="none" stroke="#ccc"/></g></g></svg>